REM DIRINDEX 1\2\5,1\2\6,1\2\7,1\2\8,1\3\9,1\3\10,1\3\11,1\4\12,1\4\13,1\4\14,1\4\15,1\4\16
REM DIRNAME folder01,folder02,folder03,folder04,folder05,folder06,folder07,folder08,folder09,folder10,folder11,folder12,folder13,folder14,folder15,folder16
TITLE ""
FILE "1200_2_sec04_1266_1279.mp3" MP3
  TRACK 01 AUDIO
    TITLE "0:"
    INDEX 01 00:00:00
  TRACK 02 AUDIO
    TITLE "10:cjc034_02620"
    INDEX 01 00:00:13
  TRACK 03 AUDIO
    TITLE "0:"
    INDEX 01 00:01:13
  TRACK 04 AUDIO
    TITLE "9:cjc034_02621"
    INDEX 01 00:01:19
  TRACK 05 AUDIO
    TITLE "0:"
    INDEX 01 00:02:38
  TRACK 06 AUDIO
    TITLE "10:cjc034_02622"
    INDEX 01 00:03:12
  TRACK 07 AUDIO
    TITLE "0:"
    INDEX 01 00:05:22
  TRACK 08 AUDIO
    TITLE "9:cjc034_02623"
    INDEX 01 00:05:30
  TRACK 09 AUDIO
    TITLE "0:"
    INDEX 01 00:06:49
  TRACK 10 AUDIO
    TITLE "10:cjc034_02624"
    INDEX 01 00:07:35
  TRACK 11 AUDIO
    TITLE "0:"
    INDEX 01 00:08:34
  TRACK 12 AUDIO
    TITLE "9:cjc034_02625"
    INDEX 01 00:08:38
  TRACK 13 AUDIO
    TITLE "0:"
    INDEX 01 00:09:42
  TRACK 14 AUDIO
    TITLE "10:cjc034_02626"
    INDEX 01 00:10:25
  TRACK 15 AUDIO
    TITLE "0:"
    INDEX 01 00:12:26
  TRACK 16 AUDIO
    TITLE "9:cjc034_02627"
    INDEX 01 00:12:32
  TRACK 17 AUDIO
    TITLE "0:"
    INDEX 01 00:13:43
  TRACK 18 AUDIO
    TITLE "11:cjc034_02628"
    INDEX 01 00:15:19
  TRACK 19 AUDIO
    TITLE "0:"
    INDEX 01 00:19:11
  TRACK 20 AUDIO
    TITLE "10:cjc034_02629"
    INDEX 01 00:20:16
  TRACK 21 AUDIO
    TITLE "0:"
    INDEX 01 00:22:19
  TRACK 22 AUDIO
    TITLE "9:cjc034_02630"
    INDEX 01 00:22:25
  TRACK 23 AUDIO
    TITLE "0:"
    INDEX 01 00:23:22
  TRACK 24 AUDIO
    TITLE "10:cjc034_02631"
    INDEX 01 00:24:08
  TRACK 25 AUDIO
    TITLE "0:"
    INDEX 01 00:25:25
  TRACK 26 AUDIO
    TITLE "9:cjc034_02632"
    INDEX 01 00:25:31
  TRACK 27 AUDIO
    TITLE "0:"
    INDEX 01 00:26:40
  TRACK 28 AUDIO
    TITLE "10:cjc034_02633"
    INDEX 01 00:27:26
  TRACK 29 AUDIO
    TITLE "0:"
    INDEX 01 00:28:31
  TRACK 30 AUDIO
    TITLE "9:cjc034_02634"
    INDEX 01 00:28:37
  TRACK 31 AUDIO
    TITLE "0:"
    INDEX 01 00:29:40
  TRACK 32 AUDIO
    TITLE "10:cjc034_02635"
    INDEX 01 00:30:26
  TRACK 33 AUDIO
    TITLE "0:"
    INDEX 01 00:32:56
  TRACK 34 AUDIO
    TITLE "9:cjc034_02636"
    INDEX 01 00:32:62
  TRACK 35 AUDIO
    TITLE "0:"
    INDEX 01 00:33:66
  TRACK 36 AUDIO
    TITLE "10:cjc034_02637"
    INDEX 01 00:34:51
  TRACK 37 AUDIO
    TITLE "0:"
    INDEX 01 00:36:50
  TRACK 38 AUDIO
    TITLE "9:cjc034_02638"
    INDEX 01 00:36:54
  TRACK 39 AUDIO
    TITLE "0:"
    INDEX 01 00:37:61
  TRACK 40 AUDIO
    TITLE "10:cjc034_02639"
    INDEX 01 00:38:47
  TRACK 41 AUDIO
    TITLE "0:"
    INDEX 01 00:39:58
  TRACK 42 AUDIO
    TITLE "9:cjc034_02640"
    INDEX 01 00:39:64
  TRACK 43 AUDIO
    TITLE "0:"
    INDEX 01 00:40:64
  TRACK 44 AUDIO
    TITLE "10:cjc034_02641"
    INDEX 01 00:41:45
  TRACK 45 AUDIO
    TITLE "0:"
    INDEX 01 00:42:63
  TRACK 46 AUDIO
    TITLE "9:cjc034_02642"
    INDEX 01 00:42:70
  TRACK 47 AUDIO
    TITLE "0:"
    INDEX 01 00:43:68
  TRACK 48 AUDIO
    TITLE "10:cjc034_02643"
    INDEX 01 00:44:54
  TRACK 49 AUDIO
    TITLE "0:"
    INDEX 01 00:46:74
  TRACK 50 AUDIO
    TITLE "9:cjc034_02644"
    INDEX 01 00:47:03
  TRACK 51 AUDIO
    TITLE "0:"
    INDEX 01 00:48:26
  TRACK 52 AUDIO
    TITLE "11:cjc034_02645"
    INDEX 01 00:50:01
  TRACK 53 AUDIO
    TITLE "0:"
    INDEX 01 00:54:54
  TRACK 54 AUDIO
    TITLE "10:cjc034_02646"
    INDEX 01 00:55:53
  TRACK 55 AUDIO
    TITLE "0:"
    INDEX 01 00:57:64
  TRACK 56 AUDIO
    TITLE "9:cjc034_02647"
    INDEX 01 00:57:68
  TRACK 57 AUDIO
    TITLE "0:"
    INDEX 01 00:59:10
  TRACK 58 AUDIO
    TITLE "10:cjc034_02648"
    INDEX 01 00:59:65
  TRACK 59 AUDIO
    TITLE "0:"
    INDEX 01 01:02:08
  TRACK 60 AUDIO
    TITLE "9:cjc034_02649"
    INDEX 01 01:02:12
  TRACK 61 AUDIO
    TITLE "0:"
    INDEX 01 01:03:16
